<svg id="svg" version="1.1" xmlns="http://www.w3.org/2000/svg" xmlns:xlink="http://www.w3.org/1999/xlink" width="400" height="400" viewBox="0, 0, 400,400"><g id="svgg"><path id="path0" d="M0.000 200.000 L 0.000 400.000 200.000 400.000 L 400.000 400.000 400.000 200.000 L 400.000 0.000 200.000 0.000 L 0.000 0.000 0.000 200.000 M103.198 169.677 C 111.443 172.421,114.000 177.716,114.000 192.045 L 114.000 200.333 121.833 200.333 L 129.667 200.333 129.667 184.500 L 129.667 168.667 133.345 168.667 L 137.023 168.667 136.925 194.583 C 136.815 223.750,136.973 221.920,134.206 226.083 C 126.699 237.374,108.974 234.956,105.003 222.098 C 104.401 220.150,104.333 219.002,104.333 210.798 L 104.333 201.667 96.333 201.667 L 88.333 201.667 88.333 217.500 L 88.333 233.333 84.857 233.333 L 81.381 233.333 81.274 216.250 C 81.108 189.822,81.339 181.296,82.285 178.919 C 85.499 170.840,94.603 166.817,103.198 169.677 M247.101 187.276 C 249.972 188.689,252.333 191.581,252.333 193.682 C 252.333 194.276,252.090 194.333,249.583 194.331 L 246.833 194.328 246.100 193.043 C 244.307 189.902,238.481 189.769,236.157 192.816 C 234.089 195.528,233.796 201.507,235.562 204.953 C 238.142 209.984,245.857 209.354,246.568 204.054 L 246.754 202.667 243.877 202.667 L 241.000 202.667 241.000 200.333 L 241.000 198.000 246.667 198.000 L 252.333 198.000 252.333 205.333 L 252.333 212.667 250.204 212.667 L 248.074 212.667 247.855 211.500 L 247.637 210.334 246.735 211.176 C 244.729 213.048,239.322 213.598,235.763 212.292 C 226.869 209.027,225.618 193.588,233.801 188.082 C 237.463 185.618,243.046 185.280,247.101 187.276 M176.546 188.527 C 182.048 191.928,182.678 205.632,177.563 210.675 C 173.002 215.174,162.667 212.400,162.667 206.677 C 162.667 205.814,168.200 206.276,168.609 207.173 C 170.274 210.828,175.322 207.890,175.331 203.261 L 175.333 202.356 174.083 203.095 C 170.189 205.396,164.503 203.251,162.820 198.846 C 159.887 191.166,169.331 184.066,176.546 188.527 M157.667 200.167 L 157.667 212.667 154.833 212.667 L 152.000 212.667 152.000 203.500 C 152.000 198.458,151.887 194.339,151.750 194.345 C 151.612 194.352,150.647 194.561,149.604 194.810 C 147.319 195.357,147.333 195.368,147.333 192.989 L 147.333 191.089 149.250 190.390 C 150.304 190.005,151.692 189.241,152.333 188.692 C 153.353 187.819,153.762 187.692,155.583 187.680 L 157.667 187.667 157.667 200.167 M200.667 189.547 C 200.667 191.179,200.483 191.718,199.280 193.623 C 196.094 198.668,193.173 205.576,192.213 210.333 L 191.777 212.500 188.882 212.596 L 185.988 212.693 186.206 211.263 C 186.822 207.219,190.599 198.141,193.296 194.220 C 193.867 193.391,194.333 192.628,194.333 192.523 C 194.333 192.419,191.783 192.333,188.667 192.333 L 183.000 192.333 183.000 190.000 L 183.000 187.667 191.833 187.667 L 200.667 187.667 200.667 189.547 M214.000 200.167 L 214.000 212.667 211.167 212.667 L 208.333 212.667 208.333 203.464 L 208.333 194.261 207.417 194.508 C 206.912 194.643,205.931 194.866,205.236 195.002 L 203.971 195.249 204.069 193.086 L 204.167 190.923 205.839 190.301 C 206.759 189.958,208.034 189.231,208.673 188.686 C 209.686 187.820,210.098 187.692,211.917 187.680 L 214.000 187.667 214.000 200.167 M169.703 192.113 C 167.249 193.532,167.432 197.778,170.005 199.095 C 173.142 200.700,175.994 198.023,175.016 194.391 C 174.403 192.116,171.702 190.958,169.703 192.113 M269.000 195.291 L 269.000 197.915 267.309 198.078 C 263.548 198.439,262.868 199.775,262.722 207.083 L 262.610 212.667 259.805 212.667 L 257.000 212.667 257.000 202.833 L 257.000 193.000 259.833 193.000 L 262.667 193.000 262.667 194.408 L 262.667 195.815 263.660 194.728 C 264.823 193.455,266.396 192.698,267.917 192.680 L 269.000 192.667 269.000 195.291 M284.507 193.453 C 291.725 196.814,291.928 208.410,284.833 212.082 C 276.975 216.149,268.531 208.479,270.960 199.480 C 272.446 193.973,279.186 190.975,284.507 193.453 M329.833 193.299 C 336.446 196.360,336.213 209.084,329.485 212.341 C 327.446 213.327,323.869 213.188,322.348 212.063 L 321.333 211.313 321.333 215.657 L 321.333 220.000 318.500 220.000 L 315.667 220.000 315.667 206.500 L 315.667 193.000 318.342 193.000 L 321.017 193.000 321.212 193.978 L 321.408 194.956 322.121 194.273 C 323.862 192.602,327.372 192.159,329.833 193.299 M299.008 198.917 C 299.019 207.336,299.354 208.333,302.172 208.333 C 304.931 208.333,305.150 207.730,305.269 199.807 L 305.371 193.000 308.186 193.000 L 311.000 193.000 311.000 202.847 L 311.000 212.694 308.264 212.597 C 305.692 212.506,305.517 212.452,305.342 211.706 C 305.165 210.955,305.128 210.944,304.661 211.507 C 302.927 213.599,297.812 213.536,295.556 211.395 C 293.738 209.670,293.571 208.831,293.410 200.583 L 293.262 193.000 296.131 193.000 L 299.000 193.000 299.008 198.917 M278.699 197.404 C 275.925 198.892,275.364 205.347,277.810 207.645 C 281.442 211.057,285.684 205.753,283.951 199.967 C 283.243 197.606,280.667 196.348,278.699 197.404 M323.771 197.376 C 319.828 198.486,320.129 207.765,324.133 208.516 C 326.840 209.024,328.626 207.129,328.923 203.432 C 329.276 199.027,327.079 196.444,323.771 197.376 " stroke="none" fill="#041454" fill-rule="evenodd"></path><path id="path1" d="M93.833 169.140 C 88.449 170.390,84.270 173.929,82.285 178.919 C 81.339 181.296,81.108 189.822,81.274 216.250 L 81.381 233.333 84.857 233.333 L 88.333 233.333 88.333 217.500 L 88.333 201.667 96.333 201.667 L 104.333 201.667 104.333 210.798 C 104.333 219.002,104.401 220.150,105.003 222.098 C 108.974 234.956,126.699 237.374,134.206 226.083 C 136.973 221.920,136.815 223.750,136.925 194.583 L 137.023 168.667 133.345 168.667 L 129.667 168.667 129.667 184.500 L 129.667 200.333 121.833 200.333 L 114.000 200.333 114.000 192.045 C 114.000 187.487,113.860 183.020,113.689 182.118 C 111.934 172.865,102.985 167.016,93.833 169.140 " stroke="none" fill="#f0d90c" fill-rule="evenodd"></path><path id="path2" d="M238.348 186.364 C 226.282 188.729,224.831 208.965,236.480 212.408 C 240.034 213.459,245.105 212.603,247.246 210.592 L 248.000 209.884 248.000 210.748 C 248.000 212.452,248.265 212.667,250.369 212.667 L 252.333 212.667 252.333 205.333 L 252.333 198.000 246.833 198.000 L 241.333 198.000 241.333 200.333 L 241.333 202.667 244.204 202.667 L 247.074 202.667 246.842 203.905 C 245.689 210.053,237.596 210.293,234.999 204.257 C 233.610 201.027,234.099 195.336,235.995 192.673 C 238.347 189.370,244.001 189.609,246.306 193.109 L 247.112 194.333 249.729 194.333 L 252.346 194.333 252.126 193.417 C 250.870 188.193,244.820 185.096,238.348 186.364 M169.833 187.487 C 169.650 187.566,168.854 187.797,168.064 188.000 C 162.753 189.366,160.709 197.309,164.601 201.459 C 166.768 203.770,171.096 204.405,174.150 202.859 L 175.746 202.051 175.521 203.748 C 174.883 208.559,171.391 210.531,168.806 207.541 C 167.785 206.360,167.710 206.333,165.340 206.333 L 162.917 206.333 163.132 207.408 C 164.324 213.369,174.397 214.908,178.175 209.707 C 181.713 204.834,181.733 194.275,178.212 190.109 C 176.674 188.291,171.633 186.713,169.833 187.487 M152.402 188.851 C 151.614 189.474,150.227 190.247,149.318 190.570 L 147.667 191.156 147.667 193.078 C 147.667 195.249,147.692 195.264,150.197 194.504 C 151.097 194.231,151.871 194.006,151.917 194.004 C 151.962 194.002,152.000 198.200,152.000 203.333 L 152.000 212.667 154.667 212.667 L 157.333 212.667 157.333 200.167 L 157.333 187.667 155.583 187.692 C 154.118 187.714,153.601 187.902,152.402 188.851 M183.333 189.833 L 183.333 192.000 189.000 192.000 C 192.117 192.000,194.666 192.112,194.665 192.250 C 194.664 192.387,194.206 193.175,193.646 194.000 C 190.802 198.191,187.057 207.127,186.486 211.083 L 186.258 212.667 188.879 212.666 L 191.500 212.666 192.364 209.083 C 193.451 204.579,195.757 199.086,198.338 194.853 C 200.178 191.835,200.333 191.428,200.333 189.624 L 200.333 187.667 191.833 187.667 L 183.333 187.667 183.333 189.833 M208.735 188.851 C 207.948 189.474,206.560 190.247,205.652 190.570 L 204.000 191.156 204.000 193.078 C 204.000 195.249,204.025 195.264,206.530 194.504 C 207.430 194.231,208.279 194.006,208.417 194.004 C 208.554 194.002,208.667 198.200,208.667 203.333 L 208.667 212.667 211.333 212.667 L 214.000 212.667 214.000 200.167 L 214.000 187.667 212.083 187.692 C 210.427 187.715,209.972 187.872,208.735 188.851 M172.767 191.689 C 175.387 192.416,176.359 196.693,174.359 198.692 C 171.806 201.245,167.339 198.897,167.786 195.237 C 168.130 192.416,170.165 190.966,172.767 191.689 M266.707 193.051 C 265.138 193.502,264.010 194.301,263.305 195.459 L 262.705 196.447 262.476 194.724 L 262.247 193.000 259.790 193.000 L 257.333 193.000 257.333 202.833 L 257.333 212.667 260.000 212.667 L 262.667 212.667 262.667 207.156 C 262.667 199.738,263.325 198.392,267.239 197.805 L 268.667 197.591 268.667 195.129 C 268.667 192.468,268.681 192.483,266.707 193.051 M277.601 193.113 C 273.007 194.408,270.307 198.692,270.785 203.925 C 271.852 215.593,287.813 216.186,289.649 204.626 C 290.877 196.890,284.801 191.084,277.601 193.113 M324.667 193.053 C 324.025 193.233,322.938 193.826,322.250 194.372 L 321.000 195.365 321.000 194.182 L 321.000 193.000 318.333 193.000 L 315.667 193.000 315.667 206.500 L 315.667 220.000 318.333 220.000 L 321.000 220.000 321.000 215.500 C 321.000 212.722,321.128 211.000,321.333 211.000 C 321.517 211.000,321.667 211.118,321.667 211.261 C 321.667 213.497,328.484 213.292,331.114 210.977 C 338.389 204.573,333.368 190.618,324.667 193.053 M293.728 200.750 C 293.827 208.007,293.880 208.588,294.573 209.883 C 296.382 213.266,301.713 213.988,304.583 211.240 L 305.667 210.203 305.667 211.435 L 305.667 212.667 308.377 212.667 L 311.087 212.667 310.881 211.417 C 310.767 210.729,310.672 206.304,310.670 201.583 L 310.667 193.000 308.167 193.000 L 305.667 193.000 305.659 198.750 C 305.654 201.912,305.512 205.100,305.343 205.833 C 304.702 208.608,301.871 209.589,299.974 207.692 L 299.000 206.718 299.000 199.859 L 299.000 193.000 296.311 193.000 L 293.622 193.000 293.728 200.750 M282.675 197.672 C 284.983 199.316,285.186 205.327,283.012 207.654 C 280.939 209.873,277.252 208.664,276.367 205.474 C 274.768 199.715,278.705 194.846,282.675 197.672 M326.972 197.485 C 329.813 198.955,329.915 205.778,327.128 207.971 C 324.065 210.380,321.000 207.841,321.000 202.894 C 321.000 197.978,323.517 195.699,326.972 197.485 " stroke="none" fill="#f9f9fa" fill-rule="evenodd"></path><path id="path3" d="M200.440 189.667 C 200.440 190.858,200.501 191.346,200.574 190.750 C 200.648 190.154,200.648 189.179,200.574 188.583 C 200.501 187.987,200.440 188.475,200.440 189.667 M240.417 190.563 C 240.737 190.647,241.262 190.647,241.583 190.563 C 241.904 190.479,241.642 190.411,241.000 190.411 C 240.358 190.411,240.096 190.479,240.417 190.563 M184.833 192.227 C 189.718 192.468,194.668 192.479,194.667 192.250 C 194.667 192.112,192.004 192.029,188.750 192.064 C 185.496 192.100,183.733 192.173,184.833 192.227 M293.474 199.667 C 293.474 203.425,293.523 204.963,293.582 203.083 C 293.641 201.204,293.641 198.129,293.582 196.250 C 293.523 194.371,293.474 195.908,293.474 199.667 " stroke="none" fill="#455482" fill-rule="evenodd"></path><path id="path4" d="M157.485 200.167 C 157.484 207.133,157.529 210.031,157.583 206.605 C 157.637 203.180,157.637 197.480,157.583 193.939 C 157.529 190.397,157.485 193.200,157.485 200.167 M183.109 189.833 C 183.111 191.117,183.171 191.601,183.243 190.909 C 183.315 190.218,183.314 189.168,183.241 188.576 C 183.167 187.984,183.108 188.550,183.109 189.833 M147.437 193.167 C 147.438 194.267,147.501 194.676,147.575 194.077 C 147.649 193.478,147.648 192.578,147.572 192.077 C 147.495 191.576,147.435 192.067,147.437 193.167 M268.732 195.061 C 268.668 197.580,268.652 197.625,267.750 197.761 L 266.833 197.900 267.760 197.950 C 268.926 198.013,269.061 197.646,268.915 194.800 L 268.797 192.500 268.732 195.061 M257.148 202.833 C 257.148 208.333,257.193 210.630,257.249 207.937 C 257.305 205.244,257.305 200.744,257.249 197.937 C 257.194 195.130,257.148 197.333,257.148 202.833 M262.411 194.000 C 262.411 194.642,262.479 194.904,262.563 194.583 C 262.647 194.262,262.647 193.737,262.563 193.417 C 262.479 193.096,262.411 193.358,262.411 194.000 M305.472 199.000 C 305.472 202.392,305.521 203.779,305.582 202.083 C 305.642 200.387,305.642 197.612,305.582 195.917 C 305.521 194.221,305.472 195.608,305.472 199.000 M310.813 202.000 C 310.813 207.042,310.859 209.104,310.916 206.583 C 310.972 204.063,310.972 199.938,310.916 197.417 C 310.859 194.896,310.813 196.958,310.813 202.000 M208.480 203.333 C 208.480 208.558,208.526 210.696,208.583 208.083 C 208.639 205.471,208.639 201.196,208.583 198.583 C 208.526 195.971,208.480 198.108,208.480 203.333 M167.744 195.667 C 167.744 196.308,167.813 196.571,167.896 196.250 C 167.980 195.929,167.980 195.404,167.896 195.083 C 167.813 194.762,167.744 195.025,167.744 195.667 M241.112 200.333 C 241.112 201.708,241.171 202.271,241.243 201.583 C 241.315 200.896,241.315 199.771,241.243 199.083 C 241.171 198.396,241.112 198.958,241.112 200.333 M180.744 201.000 C 180.744 201.642,180.813 201.904,180.896 201.583 C 180.980 201.262,180.980 200.737,180.896 200.417 C 180.813 200.096,180.744 200.358,180.744 201.000 M284.411 203.000 C 284.411 203.642,284.479 203.904,284.563 203.583 C 284.647 203.262,284.647 202.737,284.563 202.417 C 284.479 202.096,284.411 202.358,284.411 203.000 M240.587 208.569 C 241.002 208.649,241.602 208.646,241.921 208.562 C 242.239 208.479,241.900 208.414,241.167 208.417 C 240.433 208.421,240.173 208.489,240.587 208.569 M321.060 215.583 C 321.121 220.232,321.250 219.681,321.411 214.083 C 321.460 212.386,321.387 210.999,321.250 210.999 C 321.112 211.000,321.027 213.063,321.060 215.583 " stroke="none" fill="#7a82a4" fill-rule="evenodd"></path></g></svg>